<svg version="1.2" xmlns="http://www.w3.org/2000/svg" viewBox="0 0 120 27" width="150" height="34"><style>.a{fill:#fd8a8a}</style>
    <path  d="m8.3 17.3v-9.1q0-0.3 0.2-0.5 0.2-0.2 0.5-0.2h4.1q3.2 0 4.6 1.3 1.4 1.2 1.4 4 0 2.7-1.4 3.9-1.4 1.3-4.6 1.3h-4.1q-0.3 0-0.5-0.2-0.2-0.2-0.2-0.5zm2.7-7.7v6.3h2q2 0 2.7-0.7 0.7-0.7 0.7-2.4 0-1.8-0.7-2.5-0.7-0.7-2.7-0.7zm9.6 7.7v-9.1q0-0.3 0.2-0.5 0.2-0.2 0.5-0.2h8.4q0.3 0 0.5 0.2 0.2 0.2 0.2 0.5v0.7q0 0.3-0.2 0.5-0.2 0.2-0.5 0.2h-6.3v2.1h5.4q0.3 0 0.5 0.2 0.2 0.2 0.2 0.5v0.7q0 0.3-0.2 0.5-0.2 0.2-0.5 0.2h-5.4v2.1h6.3q0.3 0 0.5 0.2 0.2 0.2 0.2 0.5v0.7q0 0.3-0.2 0.5-0.2 0.2-0.5 0.2h-8.4q-0.3 0-0.5-0.2-0.2-0.2-0.2-0.5zm14.5 0l-4.2-9.2q0-0.1 0-0.2 0-0.1 0.1-0.2 0.1-0.2 0.4-0.2h1.6q0.6 0 0.9 0.7l2.8 6.3 2.8-6.3q0.3-0.7 0.9-0.7h1.6q0.3 0 0.4 0.2 0.1 0.1 0.1 0.2 0 0.1 0 0.2l-4.2 9.2q-0.4 0.7-1.1 0.7h-1q-0.7 0-1.1-0.7zm8.6 0v-9.1q0-0.3 0.2-0.5 0.2-0.2 0.5-0.2h8.5q0.3 0 0.5 0.2 0.2 0.2 0.2 0.5v0.7q0 0.3-0.2 0.5-0.2 0.2-0.5 0.2h-6.4v2.1h5.5q0.3 0 0.5 0.2 0.2 0.2 0.2 0.5v0.7q0 0.3-0.2 0.5-0.2 0.2-0.5 0.2h-5.5v2.1h6.4q0.2 0 0.4 0.2 0.2 0.2 0.2 0.5v0.7q0 0.3-0.2 0.5-0.2 0.2-0.5 0.2h-8.4q-0.3 0-0.5-0.2-0.2-0.2-0.2-0.5zm11.2 0v-9.1q0-0.3 0.2-0.5 0.2-0.2 0.5-0.2h1.4q0.3 0 0.5 0.2 0.2 0.2 0.2 0.5v7.7h6.4q0.2 0 0.4 0.2 0.2 0.2 0.2 0.5v0.7q0 0.3-0.2 0.5-0.2 0.2-0.4 0.2h-8.5q-0.3 0-0.5-0.2-0.2-0.2-0.2-0.5zm20.5-0.4q-1.5 1.3-4.4 1.3-2.9 0-4.4-1.3-1.5-1.3-1.5-4.2 0-2.8 1.5-4.1 1.5-1.3 4.4-1.3 2.9 0 4.4 1.3 1.5 1.3 1.5 4.1 0 2.9-1.5 4.2zm-2-6.8q-0.7-0.8-2.4-0.8-1.6 0-2.4 0.8-0.7 0.9-0.7 2.7 0 1.7 0.7 2.6 0.8 0.8 2.4 0.8 1.7 0 2.4-0.8 0.7-0.9 0.7-2.6 0-1.8-0.7-2.7zm5 7.2v-9.1q0-0.3 0.2-0.5 0.2-0.2 0.5-0.2h5.6q4.4 0 4.4 4.1 0 4.1-4.4 4.1h-3.5v1.6q0 0.3-0.2 0.5-0.2 0.2-0.5 0.2h-1.4q-0.3 0-0.5-0.2-0.2-0.2-0.2-0.5zm2.8-7.7v4h2.6q1.3 0 1.9-0.4 0.7-0.4 0.7-1.6 0-1.2-0.7-1.6-0.6-0.4-1.9-0.4z"/><path class="a" d="m90.5 17.3v-9.1q0-0.3 0.2-0.5 0.2-0.2 0.5-0.2h8.5q0.2 0 0.4 0.2 0.2 0.2 0.2 0.5v0.7q0 0.3-0.2 0.5-0.2 0.2-0.4 0.2h-6.4v2.1h5.5q0.3 0 0.5 0.2 0.2 0.2 0.2 0.5v0.7q0 0.3-0.2 0.5-0.2 0.2-0.5 0.2h-5.5v2.1h6.3q0.3 0 0.5 0.2 0.2 0.2 0.2 0.5v0.7q0 0.3-0.2 0.5-0.2 0.2-0.5 0.2h-8.4q-0.3 0-0.5-0.2-0.2-0.2-0.2-0.5zm22.1 0.4q0 0.3-0.4 0.3h-1.7q-0.3 0-0.7-0.2-0.3-0.2-0.5-0.5l-1.2-1.9q-0.8-1.2-1.9-1.2h-1.7v3.1q0 0.3-0.3 0.5-0.2 0.2-0.4 0.2h-1.4q-0.3 0-0.5-0.2-0.2-0.2-0.2-0.5v-9.1q0-0.3 0.2-0.5 0.2-0.2 0.5-0.2h6q1.7 0 2.8 0.9 1 0.9 1 2.4 0 2.2-2.7 2.7 0.4 0.2 0.8 0.6 0.4 0.3 0.8 1.1l1.4 2.1q0.1 0.2 0.1 0.4zm-8.1-8.1v2.5h3.1q0.7 0 1.3-0.3 0.6-0.3 0.6-1 0-0.6-0.6-0.9-0.6-0.3-1.3-0.3z"/></svg>